<?xml version="1.0" encoding="iso-8859-1"?>
<!-- Generator: Adobe Illustrator 16.0.0, SVG Export Plug-In . SVG Version: 6.00 Build 0)  -->
<!DOCTYPE svg PUBLIC "-//W3C//DTD SVG 1.1//EN" "http://www.w3.org/Graphics/SVG/1.1/DTD/svg11.dtd">
<svg version="1.1" id="Capa_1" xmlns="http://www.w3.org/2000/svg" xmlns:xlink="http://www.w3.org/1999/xlink" x="0px" y="0px"
	 width="967.663px" height="967.663px" viewBox="0 0 967.663 967.663" style="enable-background:new 0 0 967.663 967.663;"
	 xml:space="preserve">
<g>
	<path d="M163.807,872.604l106.154,26.773c1.463,0.369,2.959,0.557,4.446,0.557c7.972,0,14.917-5.125,17.285-12.752l61.703-198.766
		l30.76-220.104l0.178-0.701c4.174-16.548-5.895-33.405-22.442-37.58c-6.621-1.67-13.29-1.055-19.178,1.339
		c-8.828,3.587-15.898,11.177-18.402,21.104l-6.598,27.065l-6.499,26.657l-8.387,34.404l-9.557,39.197l-0.1,0.41l-0.287-0.186
		l-0.171-0.109v0.789l-12.698,50.344c-1.185,4.699-4.639,8.496-9.206,10.119c-1.58,0.561-3.221,0.836-4.853,0.836
		c-3.083,0-6.133-0.984-8.673-2.879c-2.284-1.705-22.327-17.279-22.642-38.947c-0.121-8.338,2.703-20.631,16.843-31.836
		c0.251-0.199,0.51-0.391,0.774-0.572l14.908-10.279l16.545-60.775c-16.742-3.686-45.997-9.133-72.62-9.133
		c-26.109,0-43.625,5.334-49.322,15.016c-3.544,6.025-11.965,33.475-13.618,157.955c-0.993,74.758,0.812,154.271,1.976,195.016
		C150.359,863.621,155.983,870.631,163.807,872.604z"/>
	<path d="M301.086,435.802c3.862-8.493,9.617-15.747,16.628-21.361c1.258-1.008,2.557-1.961,3.892-2.86
		c6.353-4.284,13.522-7.328,21.108-8.877v-12.262v-13.854V62.649c0-6.975,5.674-12.649,12.648-12.649h416.531
		c6.975,0,12.649,5.674,12.649,12.649v421.016h-73.707c-30.86,0-55.968,25.107-55.968,55.968v73.707H449.826h-16.352h-23.352
		h-21.653l-0.009,0.062l-1.778,12.424l-1.791,12.514l-3.578,25h6.043h283.067c16.581,0,32.79-6.752,44.472-18.523l101.471-102.264
		c11.723-11.814,18.178-27.486,18.178-44.127V62.649C834.543,28.104,806.438,0,771.894,0H355.363
		c-34.544,0-62.648,28.104-62.648,62.649V463.65l4.878-17.918C298.467,442.261,299.653,438.951,301.086,435.802z M704.87,583.936
		v-44.303c0-3.291,2.677-5.967,5.967-5.967h43.912L704.87,583.936z"/>
	<path d="M150.032,945.131l93.17,21.943c11.792,2.777,23.603-4.531,26.38-16.322l1.404-5.969c1.858-7.891-0.804-15.787-6.301-20.98
		c-2.716-2.568-6.122-4.48-10.022-5.398l-93.17-21.941c-2.301-0.543-4.601-0.695-6.836-0.512
		c-9.22,0.762-17.308,7.342-19.544,16.832l-1.405,5.969C130.932,930.543,138.24,942.354,150.032,945.131z"/>
	<path d="M456.672,130.21c4.967-3.545,11.254-5.268,19.223-5.268c6.461,0,11.486,1.417,15.358,4.331
		c3.923,2.953,7.112,8.22,9.482,15.653c1.983,6.223,8.431,9.87,14.775,8.371l17.906-4.219c3.336-0.786,6.203-2.907,7.93-5.867
		c1.728-2.96,2.164-6.499,1.207-9.79c-4.447-15.296-12.562-27.428-24.119-36.058c-11.539-8.615-25.726-12.983-42.166-12.983
		c-14.193,0-27.428,3.309-39.335,9.835c-12.278,6.728-21.853,16.665-28.458,29.535c-6.358,12.388-9.583,26.91-9.583,43.161
		c0,14.749,2.777,28.785,8.255,41.717c5.811,13.722,14.521,24.425,25.886,31.811c11.299,7.343,25.75,11.066,42.953,11.066
		c17.133,0,31.966-4.867,44.088-14.466c12.057-9.545,20.443-23.299,24.931-40.88c0.82-3.218,0.329-6.629-1.369-9.483
		c-1.698-2.854-4.462-4.914-7.682-5.728l-18.188-4.594c-3.286-0.829-6.771-0.29-9.65,1.498c-2.881,1.787-4.912,4.667-5.629,7.98
		c-1.884,8.714-5.288,15.17-10.119,19.188c-4.791,3.985-10.641,5.922-17.882,5.922c-6.124,0-11.656-1.533-16.913-4.688
		c-4.792-2.875-8.285-7.251-10.679-13.378c-2.821-7.22-4.252-15.987-4.252-26.06c0-7.661,1.229-15.197,3.658-22.4
		C448.335,138.386,451.726,133.739,456.672,130.21z"/>
	<path d="M647.927,249.161h18.656c5.145,0,9.764-3.152,11.64-7.942l53.812-137.438c1.507-3.848,1.016-8.19-1.313-11.603
		s-6.193-5.455-10.325-5.455h-18.562c-5.225,0-9.896,3.248-11.717,8.144l-32.636,87.771l-31.348-87.625
		c-1.778-4.972-6.489-8.29-11.771-8.29h-19.688c-4.124,0-7.982,2.034-10.312,5.436s-2.833,7.735-1.343,11.58l53.25,137.438
		C638.136,245.989,642.766,249.161,647.927,249.161z"/>
	<path d="M418.831,331.447h289.596c13.808,0,25-11.193,25-25c0-13.807-11.192-25-25-25H418.831c-13.808,0-25,11.193-25,25
		C393.831,320.254,405.023,331.447,418.831,331.447z"/>
	<path d="M413.758,421.074c1.638,0.338,3.334,0.517,5.073,0.517h7.954h281.642c13.808,0,25-11.193,25-25c0-13.808-11.192-25-25-25
		H418.831c-8.172,0-15.427,3.921-19.988,9.984c-2.541,3.377-4.24,7.421-4.802,11.82c-0.135,1.047-0.21,2.112-0.21,3.196
		C393.831,408.659,402.383,418.73,413.758,421.074z"/>
</g>
<g>
</g>
<g>
</g>
<g>
</g>
<g>
</g>
<g>
</g>
<g>
</g>
<g>
</g>
<g>
</g>
<g>
</g>
<g>
</g>
<g>
</g>
<g>
</g>
<g>
</g>
<g>
</g>
<g>
</g>
</svg>
